PathFileType	4	(x/y/z)	S04_M20_T12.trc
DataRate	CameraRate	NumFrames	NumMarkers	Units	OrigDataRate	OrigDataStartFrame	OrigNumFrames
240	240	5	51	mm	240	268	535
Frame#	Time	Sternum			R.Acromium			L.Acromium			Top.Head			R.ASIS			L.ASIS			R.PSIS			L.PSIS			R.Great.Tro			L.Great.Tro			R.Iliac.Crest			L.Iliac.Crest			V.Sacral			R.Thigh.Upper.Post			R.Thigh.Lower.Ant			R.Thigh.Lower.Post			R.Thigh.Upper.Ant			R.Knee.Lat			R.Knee.Med			R.Shank.Upper.Post			R.Shank.Lower.Ant			R.Shank.Lower.Post			R.Shank.Upper.Ant			R.Ankle.Lat			R.Ankle.Med			R.Heel.Upper			R.Heel.Med			R.Heel.Lat			R.Toe.Lat			R.Toe.Med			R.Toe.Tip			L.Thigh.Upper.Post			L.Thigh.Lower.Ant			L.Thigh.Lower.Post			L.Thigh.Upper.Ant			L.Knee.Lat			L.Knee.Med			L.Shank.Upper.Post			L.Shank.Lower.Ant			L.Shank.Lower.Post			L.Shank.Upper.Ant			L.Ankle.Lat			L.Ankle.Med			L.Heel.Upper			L.Heel.Med			L.Heel.Lat			L.Toe.Lat			L.Toe.Med			L.Toe.Tip			Cervical.Spine			Back			
		X1	Y1	Z1	X2	Y2	Z2	X3	Y3	Z3	X4	Y4	Z4	X5	Y5	Z5	X6	Y6	Z6	X7	Y7	Z7	X8	Y8	Z8	X9	Y9	Z9	X10	Y10	Z10	X11	Y11	Z11	X12	Y12	Z12	X13	Y13	Z13	X14	Y14	Z14	X15	Y15	Z15	X16	Y16	Z16	X17	Y17	Z17	X18	Y18	Z18	X19	Y19	Z19	X20	Y20	Z20	X21	Y21	Z21	X22	Y22	Z22	X23	Y23	Z23	X24	Y24	Z24	X25	Y25	Z25	X26	Y26	Z26	X27	Y27	Z27	X28	Y28	Z28	X29	Y29	Z29	X30	Y30	Z30	X31	Y31	Z31	X32	Y32	Z32	X33	Y33	Z33	X34	Y34	Z34	X35	Y35	Z35	X36	Y36	Z36	X37	Y37	Z37	X38	Y38	Z38	X39	Y39	Z39	X40	Y40	Z40	X41	Y41	Z41	X42	Y42	Z42	X43	Y43	Z43	X44	Y44	Z44	X45	Y45	Z45	X46	Y46	Z46	X47	Y47	Z47	X48	Y48	Z48	X49	Y49	Z49	X50	Y50	Z50	X51	Y51	Z51	

268	1.1125	582.37	1287.2	276.84	456.49	1508.4	463.77	431.79	1500.8	113.2	459.88	1837.6	282.4	568.17	1001.9	410.06	561.19	1017.4	158.82	351.57	1039.4	312	359.33	1041.9	230.9	481.18	921.72	471.26	450.24	930.45	90.01	480.84	1088.7	454.29	458.02	1100.1	112.62	334.87	998.4	271.09	492.72	659.61	442.22	569.16	582.64	400.09	495.23	570.37	422.48	575.46	690.24	428.8	523.05	505.56	408.51	488.86	505.56	276.89	439.14	281.68	395.77	499.72	204.67	343.68	434.32	213.46	375.08	502.07	272.62	372.16	439.02	103.73	347.66	451.62	120.11	258.13	370.12	76.793	292.75	377.06	46.279	261.39	375.26	44.356	326.81	548.43	40.757	367.33	577.57	41.327	245.84	643.14	57.871	290.81	512.48	689.75	94.846	619.94	624.82	91.668	550.04	609.16	104.31	578.05	704.23	79.933	602.37	534.7	104.98	618.19	516.48	234.19	439.57	433.86	121.73	446.85	323.33	113.7	401.63	366.52	128.01	485.42	389.69	107.18	343.4	209	134.65	361.43	213.89	227.03	265.44	224.59	190.37	260.51	199.57	224.21	251.31	199.83	162.54	393.92	92.937	107.94	437.09	82.27	217.85	484.53	63.308	164.89	394.76	1554.6	296.97	322.8	1294.6	273.22
269	1.1167	587.01	1287.3	277.19	460.74	1508.5	463.77	436.79	1500.9	113.16	464.7	1837.8	282.24	572.05	1001.9	410.71	566.39	1017.6	159.36	355.94	1039.5	311.37	364.11	1042	230.31	484.5	921.71	471.3	455.95	930.67	89.878	484.36	1088.7	454.44	463.39	1100.2	112.58	339.43	998.5	270.4	494.64	659.68	442.25	570.79	582.22	400.5	496.75	570.44	422.63	577.64	689.8	429.15	524.16	505.43	408.79	490.49	505.51	277.04	439.62	281.83	395.78	500.05	204.62	343.78	434.6	213.61	375.02	502.52	272.56	372.29	439.1	103.85	347.62	451.67	120.2	258.04	370.18	76.91	292.7	377.01	46.342	261.34	375.26	44.51	326.81	548.45	40.74	367.33	577.56	41.258	245.81	643.24	57.68	290.84	519.47	690.24	94.998	627.38	626.08	92.21	557.52	609.93	104.59	584.94	705.17	80.256	610.47	535.78	105.61	626.24	517.81	234.75	449.19	432.18	121.93	458.37	321.79	113.85	412.37	364.2	128.1	495.78	388.81	107.38	356.89	205.54	134.46	374.67	210.71	226.92	278.53	219.66	190.11	274.07	194.51	223.97	264.96	194.62	162.25	409.63	90.479	107.78	452.85	80.537	217.74	500.7	62.512	164.83	399.43	1554.7	296.84	327.53	1294.7	272.96
270	1.1208	591.64	1287.4	277.53	464.99	1508.6	463.75	441.8	1501	113.11	469.53	1837.9	282.08	575.92	1001.9	411.33	571.58	1017.7	159.89	360.3	1039.6	310.75	368.89	1042	229.73	487.83	921.69	471.33	461.63	930.85	89.754	487.9	1088.7	454.58	468.75	1100.3	112.54	343.99	998.58	269.71	496.58	659.74	442.27	572.44	581.81	400.88	498.3	570.51	422.78	579.84	689.36	429.47	525.28	505.29	409.07	492.13	505.45	277.17	440.11	281.98	395.79	500.38	204.58	343.88	434.9	213.76	374.95	502.97	272.5	372.41	439.19	103.96	347.59	451.72	120.3	257.94	370.23	77.03	292.65	376.96	46.41	261.29	375.25	44.671	326.82	548.47	40.723	367.33	577.53	41.186	245.77	643.34	57.488	290.87	526.39	690.71	95.163	634.74	627.29	92.764	564.91	610.67	104.9	591.76	706.06	80.587	618.47	536.82	106.25	634.22	519.1	235.32	458.79	430.46	122.13	469.9	320.25	114.01	423.12	361.84	128.22	506.12	387.91	107.58	370.45	202.08	134.28	387.98	207.52	226.82	291.71	214.72	189.85	287.73	189.44	223.73	278.71	189.41	161.98	425.41	88.058	107.65	468.66	78.852	217.65	516.92	61.774	164.79	404.1	1554.8	296.7	332.25	1294.8	272.69
271	1.125	596.27	1287.5	277.86	469.24	1508.7	463.73	446.83	1501.1	113.05	474.35	1837.9	281.93	579.8	1001.9	411.93	576.75	1017.9	160.41	364.67	1039.6	310.13	373.66	1042.1	229.15	491.17	921.65	471.35	467.27	931.01	89.638	491.45	1088.7	454.71	474.11	1100.4	112.51	348.55	998.64	269.04	498.55	659.81	442.28	574.11	581.4	401.26	499.87	570.58	422.93	582.05	688.92	429.78	526.42	505.16	409.34	493.78	505.39	277.31	440.61	282.14	395.79	500.71	204.54	343.97	435.2	213.91	374.88	503.43	272.45	372.53	439.27	104.08	347.55	451.75	120.41	257.84	370.28	77.151	292.61	376.91	46.484	261.27	375.24	44.838	326.83	548.49	40.705	367.33	577.49	41.111	245.73	643.44	57.295	290.89	533.23	691.14	95.335	642.02	628.46	93.33	572.22	611.39	105.22	598.51	706.91	80.925	626.4	537.83	106.9	642.1	520.37	235.91	468.39	428.7	122.35	481.44	318.7	114.18	433.89	359.45	128.34	516.44	386.99	107.79	384.08	198.62	134.11	401.34	204.34	226.72	304.99	209.78	189.58	301.5	184.38	223.48	292.56	184.2	161.7	441.26	85.678	107.55	484.51	77.223	217.6	533.16	61.102	164.8	408.77	1554.9	296.54	336.97	1294.9	272.4
272	1.1292	600.9	1287.5	278.19	473.49	1508.8	463.7	451.87	1501.1	112.97	479.18	1838	281.76	583.67	1001.8	412.52	581.91	1018	160.91	369.04	1039.6	309.51	378.42	1042.1	228.57	494.52	921.6	471.36	472.89	931.13	89.527	495.03	1088.7	454.84	479.44	1100.4	112.48	353.09	998.68	268.38	500.53	659.87	442.29	575.79	581	401.62	501.46	570.65	423.07	584.27	688.48	430.07	527.59	505.02	409.6	495.44	505.33	277.44	441.12	282.31	395.79	501.05	204.5	344.07	435.51	214.07	374.81	503.89	272.4	372.65	439.36	104.19	347.51	451.79	120.51	257.74	370.33	77.272	292.56	376.87	46.562	261.26	375.23	45.01	326.85	548.52	40.687	367.33	577.43	41.034	245.69	643.54	57.103	290.92	540.01	691.55	95.513	649.22	629.58	93.909	579.44	612.07	105.57	605.2	707.71	81.271	634.23	538.81	107.57	649.89	521.6	236.53	477.97	426.89	122.57	492.98	317.15	114.37	444.66	357.04	128.47	526.74	386.06	108.02	397.77	195.17	133.95	414.75	201.16	226.62	318.36	204.83	189.31	315.36	179.33	223.24	306.53	179	161.43	457.17	83.346	107.49	500.41	75.658	217.59	549.44	60.503	164.85	413.44	1555	296.37	341.69	1295	272.11
